<svg xmlns="http://www.w3.org/2000/svg" xmlns:xlink="http://www.w3.org/1999/xlink" version="1.1" x="0px" y="0px" viewBox="0 0 90 112.5" style="enable-background:new 0 0 90 90;" xml:space="preserve"><path d="M71.4091797,37.7573242h-5.9453125V14.6806641c0-0.5522461-0.4472656-1-1-1H35.2851563  c-0.1453247,0-0.281311,0.0339966-0.4058228,0.0896606c-0.0350952,0.015625-0.0614014,0.0441284-0.0944824,0.0637207  c-0.0855103,0.0507813-0.1664429,0.1049805-0.2329712,0.1781006c-0.0090942,0.0098877-0.022644,0.0136719-0.0313721,0.0239868  l-9.7490234,11.5664063c-0.0410156,0.0485229-0.0634155,0.1075439-0.0941162,0.1622925  c-0.0222778,0.0394287-0.0504761,0.0735474-0.0673218,0.1160889c-0.0459595,0.116272-0.0739136,0.2391968-0.0739136,0.3661499  v11.5102539h-5.9453125c-4.9560547,0-8.9873047,4.0317383-8.9873047,8.9873047s4.03125,8.9873047,8.9873047,8.9873047h5.9453125  v19.5874023c0,0.5522461,0.4472656,1,1,1h38.9277344c0.5527344,0,1-0.4477539,1-1V55.7319336h5.9453125  c4.9560547,0,8.9873047-4.0317383,8.9873047-8.9873047S76.3652344,37.7573242,71.4091797,37.7573242z M34.2851563,17.4185791  v7.8284912h-6.5983276L34.2851563,17.4185791z M26.5361328,27.2470703h8.7490234c0.5527344,0,1-0.4477539,1-1V15.6806641h27.1787109  v22.0766602H26.5361328V27.2470703z M63.4638672,54.7271118c0,0.001709-0.0009766,0.0031128-0.0009766,0.0048218  s0.0009766,0.0031128,0.0009766,0.0048218v19.5825806H26.5361328V54.7367554c0-0.001709,0.0009766-0.0031128,0.0009766-0.0048218  s-0.0009766-0.0031128-0.0009766-0.0048218v-6.0249634h36.9277344V54.7271118z M71.4091797,53.7319336h-5.9453125v-6.0297852  c0-0.5522461-0.4472656-1-1-1H25.5361328c-0.5527344,0-1,0.4477539-1,1v6.0297852h-5.9453125  c-3.8525391,0-6.9873047-3.1342773-6.9873047-6.9873047s3.1347656-6.9873047,6.9873047-6.9873047h52.8183594  c3.8525391,0,6.9873047,3.1342773,6.9873047,6.9873047S75.2617188,53.7319336,71.4091797,53.7319336z"/><path d="M21.5214844,43.5688477h-3.6044922c-0.7578125,0-1.3740234,0.6162109-1.3740234,1.3740234v3.6035156  c0,0.7578125,0.6162109,1.3740234,1.3740234,1.3740234h3.6044922c0.7578125,0,1.3740234-0.6162109,1.3740234-1.3740234v-3.6035156  C22.8955078,44.1850586,22.2792969,43.5688477,21.5214844,43.5688477z M20.8955078,47.9204102h-2.3525391v-2.3515625h2.3525391  V47.9204102z"/><text x="0" y="105" fill="#000000" font-size="5px" font-weight="bold" font-family="'Helvetica Neue', Helvetica, Arial-Unicode, Arial, Sans-serif">Created by iconcheese</text><text x="0" y="110" fill="#000000" font-size="5px" font-weight="bold" font-family="'Helvetica Neue', Helvetica, Arial-Unicode, Arial, Sans-serif">from the Noun Project</text></svg>